<?xml version="1.0" standalone="no"?>
<!DOCTYPE svg PUBLIC "-//W3C//DTD SVG 20010904//EN"
 "http://www.w3.org/TR/2001/REC-SVG-20010904/DTD/svg10.dtd">
<svg version="1.0" xmlns="http://www.w3.org/2000/svg"
 width="176.000000pt" height="99.000000pt" viewBox="0 0 176.000000 99.000000"
 preserveAspectRatio="xMidYMid meet">

<g transform="translate(0.000000,99.000000) scale(0.100000,-0.100000)"
fill="#000000" stroke="none">
<path d="M695 690 c-69 -28 -88 -108 -38 -154 69 -64 173 -25 173 64 0 69 -72
117 -135 90z"/>
<path d="M1300 553 c-26 -10 -60 -46 -60 -64 0 -9 -6 -20 -12 -22 -9 -4 -10
-8 -3 -14 6 -4 16 -20 22 -35 18 -41 56 -62 100 -55 48 8 73 35 80 84 7 51 -9
79 -54 98 -37 16 -48 17 -73 8z"/>
<path d="M625 450 c-46 -10 -97 -28 -105 -38 -3 -4 -30 -19 -60 -34 -76 -38
-111 -59 -145 -87 -29 -23 -29 -24 -5 -17 260 67 275 70 395 70 116 1 124 -1
245 -43 161 -56 279 -66 386 -32 110 33 109 39 -5 40 -73 1 -123 7 -171 21
-80 24 -182 68 -191 82 -3 5 -39 18 -79 29 -76 20 -191 24 -265 9z"/>
<path d="M1576 281 c-3 -5 -27 -19 -53 -31 -27 -12 -51 -27 -54 -32 -13 -21
-118 -41 -239 -45 -102 -4 -143 -1 -224 16 -55 12 -102 25 -105 29 -11 14 -81
51 -81 42 0 -5 21 -30 48 -57 93 -94 293 -137 467 -99 102 22 197 81 233 145
12 23 20 41 18 41 -3 0 -7 -4 -10 -9z"/>
</g>
</svg>
